Coordinates
version=1
nRows=54
nColumns=12
inDegrees=yes

Units are S.I. units (second, meters, Newtons, ...)
Angles are in degrees

endheader
time	SC_y	SC_z	SC_x	AC_y	AC_z	AC_x	GH_y	GH_z	GH_yy	EL_x	PS_y
       0.0               -58.8          28.25          17.21          35.54         -1.708         -12.73          114.9          87.64          6.936           91.7          97.83
   0.01058               -58.8          28.25          17.21          35.54         -1.707         -12.73          114.9          87.62          6.946           91.7          97.82
   0.02116              -58.79          28.25          17.22          35.54         -1.706         -12.73          114.9          87.61          6.957           91.7          97.81
   0.03174              -58.79          28.25          17.22          35.55         -1.704         -12.73          114.9           87.6          6.968          91.69           97.8
   0.04232              -58.78          28.25          17.23          35.55         -1.703         -12.73          114.9          87.58           6.98          91.69           97.8
   0.05291              -58.78          28.25          17.23          35.55         -1.701         -12.73          114.9          87.57          6.992          91.69          97.79
   0.06349              -58.77          28.25          17.24          35.55           -1.7         -12.73          114.8          87.55          7.006          91.69          97.78
   0.07407              -58.76          28.25          17.25          35.56         -1.698         -12.74          114.8          87.53           7.02          91.68          97.77
   0.08465              -58.76          28.25          17.26          35.56         -1.696         -12.74          114.8          87.51          7.036          91.68          97.76
   0.09523              -58.75          28.25          17.26          35.56         -1.695         -12.74          114.8          87.49          7.052          91.68          97.74
    0.1058              -58.74          28.25          17.27          35.57         -1.692         -12.74          114.7          87.46           7.07          91.67          97.73
    0.1164              -58.73          28.25          17.28          35.57          -1.69         -12.74          114.7          87.44          7.089          91.67          97.72
     0.127              -58.72          28.25          17.29          35.58         -1.688         -12.74          114.7          87.41           7.11          91.66           97.7
    0.1376              -58.71          28.25           17.3          35.58         -1.685         -12.75          114.6          87.38          7.132          91.66          97.69
    0.1481               -58.7          28.25          17.31          35.59         -1.683         -12.75          114.6          87.35          7.156          91.65          97.67
    0.1587              -58.69          28.25          17.33          35.59         -1.679         -12.75          114.6          87.32          7.182          91.65          97.65
    0.1693              -58.68          28.25          17.34           35.6         -1.676         -12.75          114.5          87.28           7.21          91.64          97.63
    0.1799              -58.66          28.25          17.35           35.6         -1.673         -12.76          114.5          87.24          7.241          91.63          97.61
    0.1905              -58.65          28.25          17.37          35.61         -1.669         -12.76          114.4           87.2          7.275          91.63          97.59
     0.201              -58.63          28.25          17.39          35.62         -1.664         -12.76          114.4          87.15          7.312          91.62          97.56
    0.2116              -58.61          28.25          17.41          35.63          -1.66         -12.77          114.3           87.1          7.353          91.61          97.53
    0.2222              -58.59          28.25          17.43          35.63         -1.655         -12.77          114.2          87.04          7.397           91.6           97.5
    0.2328              -58.56          28.25          17.45          35.65         -1.649         -12.78          114.2          86.97          7.447          91.59          97.46
    0.2434              -58.54          28.25          17.48          35.66         -1.643         -12.78          114.1           86.9          7.501          91.58          97.42
    0.2539              -58.51          28.25          17.51          35.67         -1.636         -12.79          114.0          86.82          7.562          91.56          97.38
    0.2645              -58.48          28.24          17.54          35.68         -1.628         -12.79          113.9          86.74           7.63          91.55          97.33
    0.2751              -58.44          28.24          17.58           35.7         -1.619          -12.8          113.7          86.64          7.706          91.53          97.28
    0.2857               -58.4          28.24          17.62          35.72         -1.609         -12.81          113.6          86.53          7.791          91.51          97.22
    0.2963              -58.36          28.24          17.67          35.74         -1.598         -12.82          113.5           86.4          7.888          91.49          97.15
    0.3069              -58.31          28.24          17.72          35.76         -1.585         -12.83          113.3          86.26          7.998          91.47          97.07
    0.3174              -58.25          28.24          17.78          35.78         -1.571         -12.84          113.1          86.09          8.123          91.44          96.98
     0.328              -58.18          28.24          17.85          35.81         -1.554         -12.85          112.9          85.91          8.266          91.41          96.88
    0.3386               -58.1          28.24          17.93          35.85         -1.535         -12.87          112.6          85.69          8.432          91.37          96.76
    0.3492              -58.01          28.23          18.02          35.89         -1.513         -12.89          112.3          85.44          8.625          91.33          96.63
    0.3598              -57.91          28.23          18.13          35.93         -1.487         -12.91          112.0          85.15           8.85          91.28          96.47
    0.3703              -57.78          28.23          18.26          35.99         -1.456         -12.93          111.6           84.8          9.116          91.22          96.28
    0.3809              -57.64          28.22          18.41          36.05         -1.419         -12.96          111.1          84.39          9.432          91.15          96.05
    0.3915              -57.46          28.22          18.59          36.13         -1.376          -13.0          110.5           83.9           9.81          91.07          95.78
    0.4021              -57.24          28.22          18.81          36.23         -1.323         -13.04          109.8           83.3          10.27          90.97          95.46
    0.4127              -56.98          28.21          19.08          36.34         -1.258         -13.09          108.9          82.57          10.83          90.85          95.06
    0.4232              -56.66           28.2          19.41          36.48         -1.178         -13.16          107.8          81.68          11.52           90.7          94.57
    0.4338              -56.26          28.19          19.83          36.66         -1.078         -13.24          106.5          80.56          12.38          90.51          93.96
    0.4444              -55.75          28.18          20.35          36.88         -0.953         -13.34          104.8          79.14          13.46          90.27          93.19
     0.455               -55.1          28.16          21.02          37.17        -0.7935         -13.46          102.7          77.35          14.84          89.97           92.2
    0.4656              -54.28          28.14          21.87          37.53        -0.5894         -13.63          99.94          75.05          16.61          89.58          90.95
    0.4762              -53.22          28.12          22.96           38.0        -0.3274         -13.84          96.43          72.11          18.87          89.08          89.34
    0.4867              -51.86          28.09          24.35          38.59       0.007146         -14.11          91.95          68.34          21.77          88.45          87.28
    0.4973              -50.16          28.04           26.1          39.34         0.4279         -14.45           86.3          63.61           25.4          87.65           84.7
    0.5079              -48.09          27.99          28.24          40.25         0.9405         -14.86          79.43          57.84          29.84          86.68          81.54
    0.5185              -45.68          27.94          30.71          41.31          1.535         -15.34          71.46          51.15          34.97          85.55          77.89
    0.5291              -43.08          27.87          33.39          42.46          2.178         -15.86          62.83          43.91          40.54          84.33          73.94
    0.5396              -40.47          27.81          36.07           43.6          2.822         -16.38          54.21          36.68           46.1          83.11          69.98
    0.5502              -38.07          27.75          38.55          44.66          3.416         -16.86          46.24          29.99          51.24          81.98          66.33
    0.5608              -35.99           27.7          40.68          45.57          3.929         -17.27          39.36          24.22          55.67          81.01          63.17
